<?xml version="1.0" standalone="no"?><!DOCTYPE svg PUBLIC "-//W3C//DTD SVG 1.1//EN" "http://www.w3.org/Graphics/SVG/1.1/DTD/svg11.dtd"><svg class="icon" height="512" viewBox="0 0 1024 1024" version="1.1" xmlns="http://www.w3.org/2000/svg"><path d="M512 512m-409.6 0a409.6 409.6 0 1 0 819.2 0 409.6 409.6 0 1 0-819.2 0Z" fill="#1AAB76" /><path d="M512 512m-358.4 0a358.4 358.4 0 1 0 716.8 0 358.4 358.4 0 1 0-716.8 0Z" fill="#19C183" /><path d="M512 650.24c-20.48 20.48-51.2 20.48-71.68 0l-128-117.76c-20.48-15.36-20.48-46.08 0-61.44 20.48-15.36 51.2-15.36 66.56 0l92.16 87.04 204.8-184.32c20.48-15.36 46.08-15.36 66.56 0s20.48 46.08 0 61.44L512 650.24z" fill="#ffffff" /></svg>